<svg xmlns="http://www.w3.org/2000/svg" width="212.947" height="30.937" viewBox="0 0 212.947 30.937">
    <g data-name="Essential CU mark">
        <path d="M0 0v30.4h20.053v-1.6H1.834V15.439H18.81v-1.657H1.834V1.6h18.041V0z" data-name="Path 23"/>
        <g data-name="Group 734">
            <path d="M23.368 23.247a7.338 7.338 0 0 0 .651 2.662 6.257 6.257 0 0 0 1.538 1.952 6.6 6.6 0 0 0 2.189 1.242 7.847 7.847 0 0 0 2.662.414 14.219 14.219 0 0 0 2.189-.177 6.8 6.8 0 0 0 2.189-.71 4.817 4.817 0 0 0 1.656-1.42 3.944 3.944 0 0 0 .651-2.307 3.394 3.394 0 0 0-1.069-2.721 7.869 7.869 0 0 0-2.721-1.42 27.481 27.481 0 0 0-3.49-.828 20.047 20.047 0 0 1-3.49-.946 7.25 7.25 0 0 1-2.721-1.775 4.8 4.8 0 0 1-1.065-3.372 4.7 4.7 0 0 1 .71-2.662 5.455 5.455 0 0 1 1.775-1.715 7.715 7.715 0 0 1 2.484-.887 14.187 14.187 0 0 1 2.721-.3 12.545 12.545 0 0 1 3.076.355 6.154 6.154 0 0 1 2.484 1.25 5.922 5.922 0 0 1 1.656 2.129 7.238 7.238 0 0 1 .592 3.135h-1.6a6.5 6.5 0 0 0-.467-2.546 4.723 4.723 0 0 0-1.3-1.718 5.738 5.738 0 0 0-2.011-.946 8.423 8.423 0 0 0-2.484-.3 9.523 9.523 0 0 0-2.189.237 5.521 5.521 0 0 0-1.952.71 4.306 4.306 0 0 0-1.42 1.3 3.44 3.44 0 0 0-.532 1.952 3.209 3.209 0 0 0 .651 2.07 4.641 4.641 0 0 0 1.656 1.3 11.12 11.12 0 0 0 2.248.769c.828.177 1.715.414 2.544.592a21.635 21.635 0 0 1 2.958.71 9.111 9.111 0 0 1 2.425 1.065 5.748 5.748 0 0 1 1.6 1.775 5.538 5.538 0 0 1 .592 2.78 4.925 4.925 0 0 1-.769 2.9 5.988 5.988 0 0 1-2.017 1.84 8.418 8.418 0 0 1-2.662.946 16.618 16.618 0 0 1-2.9.3 11.9 11.9 0 0 1-3.372-.473 7.6 7.6 0 0 1-2.721-1.479 7.514 7.514 0 0 1-1.834-2.425 9.409 9.409 0 0 1-.71-3.313h1.6v.059z" data-name="Path 24"/>
            <path d="M43.477 23.247a7.337 7.337 0 0 0 .651 2.662 6.257 6.257 0 0 0 1.538 1.952 6.6 6.6 0 0 0 2.189 1.242 7.847 7.847 0 0 0 2.662.414 14.219 14.219 0 0 0 2.189-.177 6.794 6.794 0 0 0 2.189-.71 4.817 4.817 0 0 0 1.656-1.42 3.944 3.944 0 0 0 .651-2.307 3.394 3.394 0 0 0-1.066-2.721 7.869 7.869 0 0 0-2.721-1.42 27.482 27.482 0 0 0-3.49-.828 20.047 20.047 0 0 1-3.49-.946 7.25 7.25 0 0 1-2.721-1.775 4.8 4.8 0 0 1-1.065-3.372 4.7 4.7 0 0 1 .71-2.662 5.455 5.455 0 0 1 1.775-1.715 7.715 7.715 0 0 1 2.487-.882 14.187 14.187 0 0 1 2.721-.3 12.545 12.545 0 0 1 3.076.355 6.154 6.154 0 0 1 2.481 1.245 5.922 5.922 0 0 1 1.656 2.129 7.238 7.238 0 0 1 .592 3.135h-1.6a6.5 6.5 0 0 0-.473-2.544 4.723 4.723 0 0 0-1.3-1.715 5.738 5.738 0 0 0-2.011-.946 8.423 8.423 0 0 0-2.484-.3 9.523 9.523 0 0 0-2.189.237 5.521 5.521 0 0 0-1.952.71 4.306 4.306 0 0 0-1.42 1.3 3.44 3.44 0 0 0-.532 1.952 3.192 3.192 0 0 0 .592 2.07 4.641 4.641 0 0 0 1.656 1.3 11.12 11.12 0 0 0 2.248.769c.828.177 1.715.414 2.544.592a21.635 21.635 0 0 1 2.958.71 9.111 9.111 0 0 1 2.425 1.065 5.748 5.748 0 0 1 1.6 1.775 5.538 5.538 0 0 1 .592 2.78 4.925 4.925 0 0 1-.769 2.9 5.988 5.988 0 0 1-2.011 1.835 8.417 8.417 0 0 1-2.662.946 16.618 16.618 0 0 1-2.9.3 11.9 11.9 0 0 1-3.372-.473 7.138 7.138 0 0 1-2.721-1.479 7.514 7.514 0 0 1-1.834-2.425 9.409 9.409 0 0 1-.71-3.313h1.656v.059z" data-name="Path 25"/>
            <path d="M63.296 19.875v.237a14.358 14.358 0 0 0 .473 3.608 10.242 10.242 0 0 0 1.479 3.017 7.423 7.423 0 0 0 2.425 2.07 7.914 7.914 0 0 0 3.431.769 7.347 7.347 0 0 0 5.087-1.715 9.007 9.007 0 0 0 2.6-4.732h1.6a9.971 9.971 0 0 1-3.017 5.8 10.4 10.4 0 0 1-10.352 1.124 8.876 8.876 0 0 1-2.958-2.366 11.424 11.424 0 0 1-1.775-3.49 15.056 15.056 0 0 1-.592-4.377 14.932 14.932 0 0 1 .592-4.318 12.421 12.421 0 0 1 1.775-3.667 8.218 8.218 0 0 1 3.017-2.484 8.712 8.712 0 0 1 4.259-.946 9.494 9.494 0 0 1 3.963.828 7.847 7.847 0 0 1 2.9 2.307 10.176 10.176 0 0 1 1.775 3.372 13.1 13.1 0 0 1 .592 4.081v.887zm15.675-1.42a11.76 11.76 0 0 0-.592-3.313 8.948 8.948 0 0 0-1.479-2.78 7.439 7.439 0 0 0-2.366-1.893 7.044 7.044 0 0 0-3.194-.71 7.638 7.638 0 0 0-3.372.71 7.081 7.081 0 0 0-2.425 1.952 8.44 8.44 0 0 0-1.54 2.779 12.222 12.222 0 0 0-.651 3.253z" data-name="Path 26"/>
            <path d="M84.587 8.873h1.6v4.614h.059a6.2 6.2 0 0 1 1.183-2.129 7.5 7.5 0 0 1 1.775-1.6 7.364 7.364 0 0 1 2.189-1.006 8.6 8.6 0 0 1 2.425-.355 10.1 10.1 0 0 1 3.194.473 5.342 5.342 0 0 1 2.129 1.242 5.281 5.281 0 0 1 1.3 1.715 12.319 12.319 0 0 1 .71 1.893 10.355 10.355 0 0 1 .237 1.893c0 .592.059 1.124.059 1.6v13.31h-1.6v-13.6c0-.532-.059-1.183-.118-2.011a6.176 6.176 0 0 0-.71-2.307 5.092 5.092 0 0 0-1.834-1.893 6.192 6.192 0 0 0-3.372-.769 7.977 7.977 0 0 0-3.253.651 7.5 7.5 0 0 0-2.425 1.893 8.738 8.738 0 0 0-1.538 2.839 11.825 11.825 0 0 0-.532 3.608v11.648h-1.478z" data-name="Path 27"/>
            <path d="M113.572 10.289h-4.615v15.028a6.41 6.41 0 0 0 .3 2.07 1.918 1.918 0 0 0 .887 1.124 2.9 2.9 0 0 0 1.413.478c.592.059 1.242.059 1.952.059v1.36a15.791 15.791 0 0 1-2.366 0 4.492 4.492 0 0 1-2.011-.651 3.305 3.305 0 0 1-1.361-1.6 5.9 5.9 0 0 1-.414-2.9V10.289h-3.9v-1.42h3.9v-6.68h1.6v6.684h4.614z" data-name="Path 28"/>
        </g>
        <path d="M116.884 30.404h1.6V8.872h-1.6zm0-25.613h1.6V.532h-1.6z" data-name="Path 29"/>
        <path d="M137.765 26.145h-.059a6.437 6.437 0 0 1-1.065 1.834 8.6 8.6 0 0 1-1.715 1.538 8.3 8.3 0 0 1-2.307 1.065 10.352 10.352 0 0 1-2.839.355 8.2 8.2 0 0 1-5.265-1.479 5.569 5.569 0 0 1-1.834-4.614 5.4 5.4 0 0 1 .769-3.076 5.789 5.789 0 0 1 1.893-1.893 8.79 8.79 0 0 1 2.544-1.006 24.49 24.49 0 0 1 2.662-.414l2.425-.237a12.593 12.593 0 0 0 2.662-.414 3.186 3.186 0 0 0 1.479-.769 1.777 1.777 0 0 0 .592-1.242 15.282 15.282 0 0 0 .118-1.893 3.969 3.969 0 0 0-.355-1.656 3.884 3.884 0 0 0-1.065-1.36 4.873 4.873 0 0 0-1.834-.946 9.2 9.2 0 0 0-2.721-.355 7.16 7.16 0 0 0-4.614 1.42 5.638 5.638 0 0 0-1.955 4.319h-1.6a7.2 7.2 0 0 1 2.248-5.324 8.938 8.938 0 0 1 5.915-1.775c2.544 0 4.436.532 5.619 1.538a5.041 5.041 0 0 1 1.775 4.022v13.486a3.493 3.493 0 0 0 .118.828 1.085 1.085 0 0 0 .414.592 1.157 1.157 0 0 0 .828.237c.3 0 .651-.059 1.183-.118v1.36a4.613 4.613 0 0 1-1.3.177 3.821 3.821 0 0 1-1.538-.237 2.385 2.385 0 0 1-.828-.651 3.957 3.957 0 0 1-.414-1.006 7.383 7.383 0 0 1-.118-1.242v-1.064zm0-7.986a3.024 3.024 0 0 1-1.775.946 16.282 16.282 0 0 1-2.6.355l-2.662.237a15.551 15.551 0 0 0-2.307.355 7.16 7.16 0 0 0-2.07.769 5.223 5.223 0 0 0-1.538 1.479 4.34 4.34 0 0 0-.592 2.425 4.167 4.167 0 0 0 1.479 3.549 6.555 6.555 0 0 0 4.081 1.124 7.539 7.539 0 0 0 6.684-3.253 7.516 7.516 0 0 0 1.065-2.484 8.342 8.342 0 0 0 .237-1.6z" data-name="Path 30"/>
        <path d="M145.041.532h1.597v29.931h-1.597z" data-name="Rectangle 502"/>
        <g data-name="Group 736">
            <path d="M177.102 11.061c-.414-2.958-2.662-4.5-5.8-4.5-4.85 0-6.684 4.318-6.684 8.7s1.834 8.7 6.684 8.7a5.364 5.364 0 0 0 5.8-5.383h7.512c-.414 7.512-5.856 11.949-13.191 11.949-8.754 0-14.374-6.743-14.374-15.2S162.728.118 171.423.118c6.211 0 12.954 4.022 13.191 11.061h-7.512z" data-name="Path 31"/>
            <path d="M212.947 17.686c0 8.518-3.845 12.718-12.54 12.718-8.754 0-12.54-4.2-12.54-12.718V.473h7.512V18.1c0 3.786 1.361 5.679 5.028 5.679s5.028-1.952 5.028-5.679V.473h7.512z" data-name="Path 32"/>
        </g>
    </g>
</svg>
