<?xml version="1.0" encoding="UTF-8"?>
<svg width="611px" height="290px" viewBox="0 0 611 290" version="1.1" xmlns="http://www.w3.org/2000/svg" xmlns:xlink="http://www.w3.org/1999/xlink">
    <!-- Generator: Sketch 52.4 (67378) - http://www.bohemiancoding.com/sketch -->
    <title>Group 24</title>
    <desc>Created with Sketch.</desc>
    <g id="All-Pages" stroke="none" stroke-width="1" fill="none" fill-rule="evenodd" stroke-linecap="round">
        <g id="Homepage" transform="translate(-109.000000, -1447.000000)" stroke="#C8B377" stroke-width="6">
            <g id="Group-24" transform="translate(112.000000, 1450.000000)">
                <path d="M55.4765625,0.72265625 C33.6500082,41.5656334 18.6229436,84.4239883 7.83203125,129.457031 C-5.12326998,183.522583 -5.8388341,229.223223 49.6757812,257.535156 C63.2760458,264.471164 90.57781,278.125729 108.027344,280.566406 C136.011562,284.480577 168.015876,283.709464 195.859375,279.136719 C231.375216,273.303943 283.411158,228.984573 312.4375,211.113281 C376.968953,171.381772 503.619239,183.201943 563.871094,224.214844 C581.511659,236.222619 586.9047,249.79552 601.695312,269.488281" id="Path-13"></path>
                <path d="M601.516113,269.413574 C595.118978,268.389648 588.721842,267.365723 582.324707,266.341797" id="Path-14"></path>
                <path d="M601.333496,269.36377 C602.401204,264.458822 603.468913,259.553874 604.536621,254.648926" id="Path-15"></path>
            </g>
        </g>
    </g>
</svg>