<svg id="Layer_1" data-name="Layer 1" xmlns="http://www.w3.org/2000/svg" xmlns:xlink="http://www.w3.org/1999/xlink" viewBox="0 0 1440 3216"><title>Financials_wave</title><g id="Dev-Assets"><g id="Financials"><g id="Group"><path id="Mask" d="M-82.88,957H1454V327.05Q1314.67,247,1078.41,247c-236.25,0-311.16,80.05-512.73,80.05s-375.13-66-488.59-66q-113.45,0-205.09,27.18Z" fill="#c8b377"/><path id="Mask-Copy-3" d="M1408.88,2451H-128V3081Q11.34,3161,247.59,3161c236.25,0,311.16-80.05,512.73-80.05s375.13,66,488.59,66q113.44,0,205.09-27.18Z" fill="#c8b377"/><image id="Splat_4x" data-name="Splat@4x" width="3304" height="4375" transform="translate(-279 2.17) scale(0.23)" style="isolation:isolate"/><g id="Mask-Copy"><path id="path-1" d="M-68,3035H1503V331.18Q1362.65,263,1124.68,263c-238,0-327.91,49-565.32,49s-306.49-37-420.77-37Q24.31,275-68,298.14Z" fill="#231f20"/></g><g id="Mask-Copy-2"><path id="path-3" d="M1503,359H-68V3062.82Q72.35,3131,310.32,3131c238,0,327.91-49,565.32-49s306.49,37,420.77,37q114.28,0,206.59-23.15Z" fill="#231f20"/></g></g></g></g></svg>