<svg id="Layer_1" data-name="Layer 1" xmlns="http://www.w3.org/2000/svg" viewBox="0 0 1440 450.55"><title>Financials_wave</title><g id="Dev-Assets"><g id="Financials"><g id="Group-2"><g id="Mask"><path id="path-1" d="M-.79,484H1441.84V6.87q-96,38.46-220.6,25.4C1110.81,20.68,1031.85,1.09,929.67,1.09c-123,0-200.64,97.8-484.47,79.71-128-8.16,6.1-14.4-183.07-36.79Q155.57,31.4-22.16,77.29Z" fill="#c8b377"/></g><g id="Screen-Shot-2018-09-17-at-11.27.58-AM"><g id="Mask-2" data-name="Mask"><path id="path-3" d="M-1.16,486h1443V43.19q-100.46,21.89-225,8.81c-110.47-11.6-168.53-28.33-270.64-31.13C853.26,18.32,735.94,75,492.35,65.08,372.48,60.18,296,40.25,223.51,43.19q-108.43,4.39-224.67,55Z" fill="#fff"/></g></g></g></g></g></svg>